<mxfile host="app.diagrams.net" modified="2022-09-06T09:47:45.707Z" agent="5.0 (Windows NT 10.0; Win64; x64) AppleWebKit/537.36 (KHTML, like Gecko) Chrome/104.0.0.0 Safari/537.36" etag="AxU5mrWVt32QnszLQb5X" version="20.2.8" type="github">
  <diagram id="nDlNLGC1eK_GeWqX-3Wz" name="Page-1">
    <mxGraphModel dx="1022" dy="436" grid="0" gridSize="10" guides="1" tooltips="1" connect="1" arrows="1" fold="1" page="1" pageScale="1" pageWidth="827" pageHeight="1169" math="0" shadow="0">
      <root>
        <mxCell id="0" />
        <mxCell id="1" parent="0" />
        <mxCell id="NK1SW04d7qZsV6ZR1tVP-1" value="" style="rounded=0;whiteSpace=wrap;html=1;fillColor=#99CCFF;strokeColor=#6c8ebf;" vertex="1" parent="1">
          <mxGeometry x="185" y="215" width="150" height="177" as="geometry" />
        </mxCell>
        <mxCell id="NK1SW04d7qZsV6ZR1tVP-2" value="设备接入与开发" style="rounded=0;whiteSpace=wrap;html=1;strokeColor=none;" vertex="1" parent="1">
          <mxGeometry x="200" y="253" width="120" height="25" as="geometry" />
        </mxCell>
        <mxCell id="NK1SW04d7qZsV6ZR1tVP-3" value="物流网平台" style="text;html=1;strokeColor=none;fillColor=none;align=center;verticalAlign=middle;whiteSpace=wrap;rounded=0;fontStyle=1" vertex="1" parent="1">
          <mxGeometry x="226" y="219" width="76" height="30" as="geometry" />
        </mxCell>
        <mxCell id="NK1SW04d7qZsV6ZR1tVP-4" value="设备认证与管理" style="rounded=0;whiteSpace=wrap;html=1;strokeColor=none;" vertex="1" parent="1">
          <mxGeometry x="200" y="285" width="120" height="25" as="geometry" />
        </mxCell>
        <mxCell id="NK1SW04d7qZsV6ZR1tVP-5" value="边缘计算处理" style="rounded=0;whiteSpace=wrap;html=1;strokeColor=none;" vertex="1" parent="1">
          <mxGeometry x="200" y="317" width="120" height="25" as="geometry" />
        </mxCell>
        <mxCell id="NK1SW04d7qZsV6ZR1tVP-6" value="智能分析" style="rounded=0;whiteSpace=wrap;html=1;strokeColor=none;" vertex="1" parent="1">
          <mxGeometry x="200" y="349" width="120" height="25" as="geometry" />
        </mxCell>
        <mxCell id="NK1SW04d7qZsV6ZR1tVP-7" value="" style="rounded=0;whiteSpace=wrap;html=1;fillColor=#99CCFF;strokeColor=#6c8ebf;" vertex="1" parent="1">
          <mxGeometry x="370" y="215" width="150" height="177" as="geometry" />
        </mxCell>
        <mxCell id="NK1SW04d7qZsV6ZR1tVP-8" value="数据治理体系" style="rounded=0;whiteSpace=wrap;html=1;strokeColor=none;" vertex="1" parent="1">
          <mxGeometry x="385" y="253" width="120" height="25" as="geometry" />
        </mxCell>
        <mxCell id="NK1SW04d7qZsV6ZR1tVP-9" value="大数据平台" style="text;html=1;strokeColor=none;fillColor=none;align=center;verticalAlign=middle;whiteSpace=wrap;rounded=0;fontStyle=1" vertex="1" parent="1">
          <mxGeometry x="411" y="219" width="76" height="30" as="geometry" />
        </mxCell>
        <mxCell id="NK1SW04d7qZsV6ZR1tVP-10" value="数据可视化与应用" style="rounded=0;whiteSpace=wrap;html=1;strokeColor=none;" vertex="1" parent="1">
          <mxGeometry x="385" y="285" width="120" height="25" as="geometry" />
        </mxCell>
        <mxCell id="NK1SW04d7qZsV6ZR1tVP-11" value="数据分析平台" style="rounded=0;whiteSpace=wrap;html=1;strokeColor=none;" vertex="1" parent="1">
          <mxGeometry x="385" y="317" width="120" height="25" as="geometry" />
        </mxCell>
        <mxCell id="NK1SW04d7qZsV6ZR1tVP-12" value="智能分析" style="rounded=0;whiteSpace=wrap;html=1;strokeColor=none;" vertex="1" parent="1">
          <mxGeometry x="385" y="349" width="120" height="25" as="geometry" />
        </mxCell>
      </root>
    </mxGraphModel>
  </diagram>
</mxfile>
